PathFileType	4	(X/Y/Z)	OpenSim_Sub03_CSBaseline_Magnet.trc
DataRate	CameraRate	NumFrames	NumMarkers	Units	OrigDataRate	OrigDataStartFrame	OrigNumFrames
100	100	23	8	m	100	3484	9288
Frame#	Time	torso_imu_offset_imu	pelvis_imu_offset_imu	tibia_r_imu_offset_imu	femur_r_imu_offset_imu	tibia_l_imu_offset_imu	femur_l_imu_offset_imu	toes_r_imu_offset_imu	toes_l_imu_offset_imu
				X1	Y1	Z1	X2	Y2	Z2	X3	Y3	Z3	X4	Y4	Z4	X5	Y5	Z5	X6	Y6	Z6	X7	Y7	Z7	X8		Y8	Z8	

3484	34.83000000	-0.90042935	-0.18475329	0.20187954	-0.73175095	0.15982888	-0.58150632	-0.57093619	-0.56304534	0.08233667	-0.51850831	-0.72162925	0.06741688	-0.50755277	0.62178992	0.07068127	-0.81564737	0.06549492	0.18498334	-0.69160010	-0.18819452	-0.33427593	-0.80190309	0.01356006	-0.07098836
3485	34.84000000	-0.89730467	-0.18543442	0.19743170	-0.73210263	0.15773121	-0.57796238	-0.56570971	-0.56526393	0.08417060	-0.51440114	-0.72607726	0.06493851	-0.53784681	0.60129464	0.07518548	-0.81409860	0.06194711	0.19203631	-0.69592151	-0.18694979	-0.33160457	-0.79485454	0.00937649	-0.11759941
3486	34.85000000	-0.89685222	-0.18279989	0.20118574	-0.72887124	0.16129287	-0.57910866	-0.56397764	-0.56937652	0.08081362	-0.51383387	-0.72515505	0.06552545	-0.56112091	0.57363229	0.07909056	-0.81468494	0.05997997	0.18578363	-0.69507213	-0.18751136	-0.33664517	-0.78723925	0.00252911	-0.15549016
3487	34.86000000	-0.90060509	-0.18155105	0.20567993	-0.72403660	0.15827962	-0.58197348	-0.55372526	-0.57496816	0.08150752	-0.50873503	-0.73330260	0.05804748	-0.58979670	0.54355846	0.08667919	-0.81967358	0.05751973	0.18680642	-0.69514566	-0.19083811	-0.33018620	-0.78131363	-0.00791251	-0.18573669
3488	34.87000000	-0.89470247	-0.18151179	0.20852115	-0.72865795	0.15669419	-0.58704875	-0.55563166	-0.58201128	0.08399163	-0.50489801	-0.74002526	0.05612240	-0.61211049	0.51078121	0.09417227	-0.81237057	0.06109131	0.18879403	-0.69483032	-0.19674637	-0.32422519	-0.78314948	-0.01899590	-0.22554983
3489	34.88000000	-0.89422739	-0.18230052	0.20500274	-0.72115712	0.15822002	-0.59081670	-0.55071690	-0.58376639	0.07994355	-0.50367897	-0.74474628	0.05466643	-0.63986924	0.48027608	0.10265651	-0.81016017	0.07157345	0.18977103	-0.69547747	-0.20085067	-0.32187455	-0.76635029	-0.03146865	-0.26704722
3490	34.89000000	-0.89073147	-0.18326469	0.20606088	-0.72221772	0.16254443	-0.59391169	-0.54878835	-0.58917037	0.08013064	-0.50248991	-0.74432248	0.04744338	-0.65858422	0.44917923	0.11377732	-0.81183225	0.07365069	0.19542435	-0.69636731	-0.20403930	-0.32019104	-0.75599620	-0.05557856	-0.30713007
3491	34.90000000	-0.89432256	-0.18576555	0.21139551	-0.72073752	0.16303033	-0.59768940	-0.54271873	-0.59462108	0.07820394	-0.49861546	-0.74502402	0.04336500	-0.67272193	0.41380893	0.11759428	-0.80801096	0.07388541	0.18870228	-0.69496559	-0.20754405	-0.31459303	-0.74012713	-0.06616743	-0.33647984
3492	34.91000000	-0.89794725	-0.19331833	0.20753003	-0.71446731	0.16148787	-0.59675412	-0.53464037	-0.60020946	0.07848476	-0.49567098	-0.75640004	0.03897612	-0.69195569	0.37559153	0.11938965	-0.81353155	0.07741660	0.18876998	-0.69756950	-0.21137396	-0.31619386	-0.72868173	-0.08006425	-0.36629467
3493	34.92000000	-0.89897588	-0.19080486	0.20858774	-0.71984462	0.16904588	-0.59888437	-0.53201968	-0.60661854	0.07520013	-0.49224692	-0.74885184	0.03484953	-0.70979910	0.34750474	0.11521521	-0.80756823	0.08400651	0.18846495	-0.69888108	-0.21091865	-0.31298081	-0.71266500	-0.10425826	-0.39350042
3494	34.93000000	-0.89564816	-0.19175735	0.21349054	-0.71748506	0.17191767	-0.59700687	-0.52721562	-0.60632319	0.07204688	-0.48891728	-0.75731101	0.03291696	-0.71869730	0.31965872	0.11737610	-0.80480050	0.09219198	0.19566780	-0.69860971	-0.21689659	-0.30638167	-0.68963294	-0.11645164	-0.42014101
3495	34.94000000	-0.89167709	-0.19106571	0.21131731	-0.71003472	0.16693400	-0.59142372	-0.51776607	-0.61288897	0.07160342	-0.48654813	-0.76356752	0.02676384	-0.73284775	0.28972809	0.11474889	-0.80628483	0.10146775	0.19421439	-0.69859651	-0.21913741	-0.30556205	-0.66731727	-0.12954564	-0.44941770
3496	34.95000000	-0.89104887	-0.18517769	0.20932800	-0.71049842	0.17446116	-0.59798797	-0.51733519	-0.62326768	0.06623987	-0.48686943	-0.76650959	0.01858747	-0.73955595	0.26255039	0.11027694	-0.80703328	0.10149095	0.19341885	-0.70224855	-0.22704595	-0.29918845	-0.65453639	-0.13564552	-0.46225870
3497	34.96000000	-0.89360316	-0.19560870	0.20907684	-0.71687618	0.17219225	-0.59494903	-0.51557617	-0.63088250	0.06483541	-0.48060569	-0.76369443	0.01449780	-0.74488537	0.23221637	0.11089655	-0.80164361	0.10831444	0.20124463	-0.70298553	-0.23286981	-0.29838192	-0.63678977	-0.14426983	-0.47492083
3498	34.97000000	-0.89395050	-0.19384841	0.21160210	-0.71095234	0.17824460	-0.59964017	-0.50735363	-0.63243155	0.06461253	-0.48405151	-0.77289453	0.00936841	-0.75262415	0.20708521	0.11156483	-0.80041853	0.12210330	0.20074067	-0.69860526	-0.23276190	-0.29366143	-0.62076179	-0.15040426	-0.49675436
3499	34.98000000	-0.88913426	-0.19447298	0.20551284	-0.70778012	0.18448418	-0.60180281	-0.50167987	-0.63188267	0.05992075	-0.48615097	-0.77718272	0.00278490	-0.76192217	0.18776829	0.11067622	-0.80032247	0.12806455	0.20646484	-0.70299971	-0.23869679	-0.28357907	-0.60878804	-0.15605335	-0.50291173
3500	34.99000000	-0.88871607	-0.19765628	0.20743428	-0.70619410	0.18606784	-0.59740341	-0.49635134	-0.64390611	0.06098140	-0.48274796	-0.77328097	-0.00512877	-0.76497391	0.17542275	0.11129344	-0.79127304	0.13714739	0.20867089	-0.70181168	-0.24334459	-0.27730061	-0.59770509	-0.15661692	-0.50893323
3501	35	-0.89050787	-0.20066374	0.20065398	-0.70743727	0.18594910	-0.59844890	-0.48427864	-0.65566225	0.05534258	-0.48696551	-0.77653014	-0.01285795	-0.76532841	0.16206493	0.11355639	-0.78947690	0.14290185	0.20665894	-0.70277835	-0.24619111	-0.26890558	-0.59263963	-0.16316732	-0.52302161
3502	35.01000000	-0.89083759	-0.20095865	0.20628243	-0.70842066	0.19179476	-0.59661887	-0.48153540	-0.65597585	0.05567133	-0.48053166	-0.77784678	-0.01864868	-0.76806127	0.15362747	0.11738496	-0.78796614	0.14596934	0.21099578	-0.70409098	-0.25253293	-0.26381542	-0.58771289	-0.17626301	-0.52119918
3503	35.02000000	-0.89256032	-0.20278661	0.20299916	-0.70736390	0.19444708	-0.58927793	-0.47170075	-0.66007344	0.04933132	-0.48129163	-0.78175453	-0.02536142	-0.77473910	0.15271889	0.11356290	-0.78532597	0.14967182	0.21651638	-0.70439315	-0.25568622	-0.25779110	-0.58954827	-0.17705225	-0.51836038
3504	35.03000000	-0.89219593	-0.20302229	0.19829959	-0.70870065	0.19564238	-0.58722108	-0.45864624	-0.66860353	0.04569209	-0.48595478	-0.78595488	-0.02589419	-0.76691667	0.15336121	0.11457988	-0.79164423	0.15476189	0.21890774	-0.71051732	-0.25738861	-0.24758747	-0.59277984	-0.17356801	-0.51642919
3505	35.04000000	-0.88789243	-0.20564779	0.20163711	-0.70726856	0.19513526	-0.58890905	-0.45597945	-0.67807354	0.04759288	-0.49105322	-0.78352711	-0.03425936	-0.76062834	0.16048405	0.11904171	-0.79293825	0.15435118	0.22354663	-0.71347338	-0.26135876	-0.23842273	-0.60820517	-0.16503415	-0.50153627
3506	35.05000000	-0.88880015	-0.20677610	0.19884039	-0.70894538	0.20037585	-0.58541046	-0.44864253	-0.68588756	0.04130863	-0.48360581	-0.78370412	-0.03959222	-0.76143723	0.17480832	0.12065432	-0.78521670	0.15745955	0.21909228	-0.71034990	-0.26981452	-0.22515747	-0.62096904	-0.16494667	-0.48522706
